<svg width="25" height="24" viewBox="0 0 25 24" fill="none" xmlns="http://www.w3.org/2000/svg">
<path d="M19.7827 15.439C20.7073 14.5212 21.4213 13.6091 21.8878 12.955C22.1918 12.5287 22.3438 12.3155 22.3438 12C22.3438 11.6845 22.1918 11.4713 21.8878 11.045C20.5217 9.12944 17.0329 5 12.3438 5C11.4359 5 10.5732 5.15476 9.76202 5.41827M7.09117 6.74742C5.07493 8.1072 3.5859 9.94266 2.79979 11.045C2.49576 11.4713 2.34375 11.6845 2.34375 12C2.34375 12.3155 2.49576 12.5287 2.79979 12.955C4.16585 14.8706 7.65453 19 12.3438 19C14.3346 19 16.1088 18.2557 17.5963 17.2526" stroke="#B8B8B8" stroke-width="1.5" stroke-linecap="round" stroke-linejoin="round"/>
<path d="M10.2016 10C9.67158 10.53 9.34375 11.2623 9.34375 12.0711C9.34375 13.6887 10.655 15 12.2726 15C13.0814 15 13.8138 14.6722 14.3438 14.1421" stroke="#B8B8B8" stroke-width="1.5" stroke-linecap="round"/>
<path d="M3.34375 3L21.3438 21" stroke="#B8B8B8" stroke-width="1.5" stroke-linecap="round" stroke-linejoin="round"/>
</svg>
