<svg width="70" height="70" viewBox="0 0 70 70" fill="none" xmlns="http://www.w3.org/2000/svg">
<path d="M67.2641 20.8344V36.3549C67.2641 44.7303 60.4745 51.5198 52.0991 51.5198H17.9569L2.73779 64.3304V20.8344C2.73779 12.459 9.52738 5.66943 17.9028 5.66943H52.0991C60.4745 5.66943 67.2641 12.459 67.2641 20.8344Z" fill="white"/>
<path d="M25.7177 33.0969C25.5002 32.8197 25.3192 32.5158 25.1789 32.1924L22.5862 26.2163C21.7292 24.241 22.5263 21.919 24.4395 20.9312C27.3781 19.414 30.0524 17.674 32.4393 15.726C33.9246 14.5139 36.0766 14.5139 37.5619 15.726C39.949 17.6741 42.6235 19.4141 45.5617 20.931C47.4751 21.9188 48.2723 24.2406 47.4154 26.216L44.8232 32.1915C44.6829 32.5148 44.5019 32.8189 44.2844 33.0961L38.2484 40.7919C36.5959 42.8989 33.4057 42.8989 31.7531 40.7919L25.7177 33.0969Z" fill="#FF3148"/>
<path d="M37.2593 27.2129C37.2593 28.4679 36.2512 29.4761 35.0059 29.4761C33.7607 29.4761 32.7427 28.4679 32.7427 27.2129C32.7427 25.9676 33.7607 24.9595 35.0059 24.9595C36.2513 24.9593 37.2593 25.9675 37.2593 27.2129Z" fill="white"/>
<path d="M52.0985 4.62842H17.9021C8.96631 4.62842 1.69629 11.8984 1.69629 20.8342V64.3301C1.69629 65.2157 2.73521 65.6938 3.40678 65.1259L18.337 52.5608H52.0982C61.034 52.5608 68.304 45.2908 68.304 36.355V20.8341C68.3042 11.8983 61.0341 4.62842 52.0985 4.62842ZM66.2226 36.3548C66.2226 44.1431 59.8867 50.4791 52.0983 50.4791H17.9569C17.7119 50.4791 17.4742 50.5655 17.2871 50.7241L3.77783 62.094V20.8341C3.77783 13.0458 10.1138 6.70982 17.9021 6.70982H52.0983C59.8867 6.70982 66.2226 13.0458 66.2226 20.8341V36.3548Z" fill="black"/>
<path d="M46.0401 20.006C43.1771 18.5293 40.5468 16.8177 38.2203 14.9202C36.3543 13.3987 33.6457 13.3967 31.7817 14.9202C29.4574 16.8157 26.827 18.5272 23.9619 20.006C21.5776 21.2378 20.5541 24.1476 21.6325 26.6306L24.2253 32.6067C24.6837 33.6673 24.8033 33.531 30.9342 41.4337C33.0045 44.0711 36.9955 44.074 39.0681 41.4337C45.238 33.4803 45.3139 33.6743 45.7782 32.6046L48.3698 26.6295C49.4469 24.1467 48.4235 21.2369 46.0401 20.006ZM46.4609 25.8023L43.8693 31.7764C43.583 32.437 43.6958 32.1074 37.4297 40.149C36.1954 41.7245 33.8083 41.7264 32.5725 40.149C26.2126 31.9846 26.418 32.4274 26.1339 31.7773L23.5411 25.8012C22.8977 24.3193 23.5026 22.5866 24.9173 21.8558C27.9094 20.3109 30.6617 18.5201 33.0969 16.5321C34.2007 15.6336 35.8004 15.6326 36.9042 16.5331C39.3424 18.5211 42.0947 20.3129 45.0847 21.8557C46.4995 22.5856 47.1032 24.3195 46.4609 25.8023Z" fill="#FF3148"/>
<path d="M35.0056 23.9189C33.1833 23.9189 31.7014 25.3967 31.7014 27.2129C31.7014 28.669 32.6538 29.8937 33.9638 30.3327V32.2295C33.9638 32.8048 34.4294 33.2702 35.0045 33.2702C35.5799 33.2702 36.0452 32.8047 36.0452 32.2295V30.3323C37.3504 29.8929 38.2995 28.6686 38.2995 27.2129C38.2996 25.3967 36.8219 23.9189 35.0056 23.9189ZM35.0056 28.4356C34.3317 28.4356 33.783 27.8868 33.783 27.2129C33.783 26.5441 34.3317 26.0004 35.0056 26.0004C35.6745 26.0004 36.2182 26.5441 36.2182 27.2129C36.2182 27.8868 35.6745 28.4356 35.0056 28.4356Z" fill="black"/>
</svg>
