<svg width="70" height="70" viewBox="0 0 70 70" fill="none" xmlns="http://www.w3.org/2000/svg">
<path d="M35.0111 2.73682C27.5073 2.73682 21.4189 8.80426 21.4189 16.329C21.4189 22.1468 25.0929 27.111 30.2446 29.0468V40.2453C30.2446 41.1299 30.9522 41.8273 31.8161 41.8273H31.8369C32.7007 41.8273 33.4085 42.535 33.4085 43.4197V45.7302C33.4085 46.6148 32.7008 47.3226 31.8369 47.3226H31.8161C30.9523 47.3226 30.2446 48.0198 30.2446 48.9045V50.9236C30.2446 51.7978 30.9522 52.5054 31.8161 52.5054H31.8369C32.7007 52.5054 33.4085 53.2132 33.4085 54.0874V56.4082C33.4085 57.2929 32.7008 58.0006 31.8369 58.0006H31.8161C30.9523 58.0006 30.2446 58.6978 30.2446 59.5722V62.5175C32.1075 64.37 33.1482 65.4211 34.9903 67.2633C36.8533 65.4211 37.894 64.37 39.757 62.5175V29.0468C44.8983 27.1214 48.5825 22.1466 48.5825 16.329C48.5824 8.80439 42.494 2.73682 35.0111 2.73682ZM35.0007 13.7688C33.6164 13.7688 32.5029 12.6448 32.5029 11.2709C32.5029 9.8868 33.6164 8.76283 35.0007 8.76283C36.3849 8.76283 37.4984 9.8868 37.4984 11.2709C37.4984 12.6447 36.3849 13.7688 35.0007 13.7688Z" fill="#FF3148"/>
<path d="M55.5496 27.283C55.5496 28.4063 54.6314 29.3147 53.5081 29.3147C52.3849 29.3147 51.4668 28.4063 51.4668 27.283C51.4668 26.1501 52.385 25.2417 53.5081 25.2417C54.6316 25.2416 55.5496 26.1499 55.5496 27.283Z" fill="#FF3148"/>
<path d="M67.263 44.7406C67.263 45.8638 66.3448 46.7722 65.2215 46.7722C64.0982 46.7722 63.1802 45.8638 63.1802 44.7406C63.1802 43.6076 64.0984 42.6992 65.2215 42.6992C66.3448 42.6991 67.263 43.6074 67.263 44.7406Z" fill="#FF3148"/>
<path d="M55.5496 62.1981C55.5496 63.3214 54.6314 64.2297 53.5081 64.2297C52.3849 64.2297 51.4668 63.3214 51.4668 62.1981C51.4668 61.0651 52.385 60.1567 53.5081 60.1567C54.6316 60.1566 55.5496 61.065 55.5496 62.1981Z" fill="#FF3148"/>
<path d="M14.4502 27.283C14.4502 28.4063 15.3684 29.3147 16.4917 29.3147C17.615 29.3147 18.533 28.4063 18.533 27.283C18.533 26.1501 17.6148 25.2417 16.4917 25.2417C15.3683 25.2416 14.4502 26.1499 14.4502 27.283Z" fill="#FF3148"/>
<path d="M2.73682 44.7406C2.73682 45.8638 3.65502 46.7722 4.7783 46.7722C5.90158 46.7722 6.81965 45.8638 6.81965 44.7406C6.81965 43.6076 5.90145 42.6992 4.7783 42.6992C3.65502 42.6991 2.73682 43.6074 2.73682 44.7406Z" fill="#FF3148"/>
<path d="M14.4502 62.1981C14.4502 63.3214 15.3684 64.2297 16.4917 64.2297C17.615 64.2297 18.533 63.3214 18.533 62.1981C18.533 61.0651 17.6148 60.1567 16.4917 60.1567C15.3683 60.1566 14.4502 61.065 14.4502 62.1981Z" fill="#FF3148"/>
<path d="M49.6229 16.3293C49.6229 8.26043 43.0679 1.69629 35.0113 1.69629C26.9425 1.69629 20.3779 8.26043 20.3779 16.3293C20.3779 22.1408 23.8956 27.4436 29.2039 29.7488V40.2456C29.2039 41.6919 30.3758 42.8683 31.8369 42.8683C32.1296 42.8683 32.3679 43.1158 32.3679 43.4203V45.7304C32.3679 46.0347 32.1296 46.2823 31.816 46.2823C30.3758 46.2823 29.2039 47.4588 29.2039 48.9045V50.9239C29.2039 52.3697 30.3758 53.5461 31.8369 53.5461C32.1296 53.5461 32.3679 53.789 32.3679 54.0877V56.4081C32.3679 56.7125 32.1296 56.9601 31.816 56.9601C30.3758 56.9601 29.2039 58.1319 29.2039 59.5721V62.5174C29.2039 62.7944 29.3143 63.0602 29.5109 63.2553C30.6458 64.384 31.2181 64.9569 34.2542 67.9991C34.6579 68.4038 35.3149 68.4062 35.7219 68.0032C36.8822 66.8559 37.5773 66.162 40.4906 63.2554C40.6872 63.0603 40.7976 62.7945 40.7976 62.5175V29.7492C46.1054 27.4507 49.6229 22.1479 49.6229 16.3293ZM39.3918 28.0728C38.9852 28.2252 38.7159 28.6135 38.7159 29.0474V62.0855C38.6103 62.1908 35.7414 65.0526 34.994 65.7941C33.0488 63.8448 32.1796 62.975 31.2854 62.085V59.5721C31.2854 59.2794 31.5232 59.0416 31.8367 59.0416C33.2775 59.0416 34.4493 57.8601 34.4493 56.4083V54.0879C34.4493 52.6417 33.2775 51.4646 31.816 51.4646C31.5232 51.4646 31.2855 51.2222 31.2855 50.9239V48.9045C31.2855 48.6011 31.5187 48.3637 31.8369 48.3637C33.2776 48.3637 34.4494 47.1822 34.4494 45.7304V43.4203C34.4494 41.9684 33.2776 40.7869 31.8161 40.7869C31.5189 40.7869 31.2856 40.549 31.2856 40.2456V29.0474C31.2856 28.6139 31.0168 28.2257 30.6108 28.0733C25.7354 26.2409 22.4596 21.5213 22.4596 16.3293C22.4596 9.40846 28.0902 3.77783 35.0116 3.77783C41.9208 3.77783 47.5418 9.40846 47.5418 16.3293C47.5415 21.5279 44.2663 26.2473 39.3918 28.0728Z" fill="black"/>
<path d="M35.0003 7.72217C33.0495 7.72217 31.4619 9.31426 31.4619 11.2713C31.4619 13.2221 33.0495 14.8097 35.0003 14.8097C36.9512 14.8097 38.5388 13.2221 38.5388 11.2713C38.5388 9.31426 36.9512 7.72217 35.0003 7.72217ZM35.0003 12.7281C34.1968 12.7281 33.5433 12.0746 33.5433 11.2711C33.5433 10.4621 34.1968 9.80344 35.0003 9.80344C35.8037 9.80344 36.4572 10.462 36.4572 11.2711C36.4572 12.0746 35.8037 12.7281 35.0003 12.7281Z" fill="black"/>
<path d="M44.8932 38.2247H53.5088C54.0836 38.2247 54.5496 37.7588 54.5496 37.184V30.1622C55.7356 29.7342 56.5904 28.6111 56.5904 27.2827C56.5904 25.5835 55.2076 24.2007 53.5083 24.2007C51.809 24.2007 50.4262 25.5835 50.4262 27.2827C50.4262 28.6114 51.2816 29.7348 52.4681 30.1624V36.1433H44.8932C44.3185 36.1433 43.8525 36.6093 43.8525 37.184C43.8524 37.7587 44.3185 38.2247 44.8932 38.2247ZM53.5083 26.2821C54.0602 26.2821 54.5089 26.7308 54.5089 27.2827C54.5089 27.8291 54.0602 28.2737 53.5083 28.2737C52.9564 28.2737 52.5077 27.8291 52.5077 27.2827C52.5077 26.7308 52.9564 26.2821 53.5083 26.2821Z" fill="black"/>
<path d="M53.5088 51.2466H44.8932C44.3185 51.2466 43.8525 51.7125 43.8525 52.2873C43.8525 52.8621 44.3185 53.328 44.8932 53.328H52.4681V59.3094C51.2816 59.7385 50.4262 60.8656 50.4262 62.1982C50.4262 63.8924 51.809 65.2706 53.5083 65.2706C55.2076 65.2706 56.5904 63.8925 56.5904 62.1982C56.5904 60.866 55.7356 59.7391 54.5496 59.3097V52.2871C54.5496 51.7125 54.0836 51.2466 53.5088 51.2466ZM53.5083 63.1892C52.9564 63.1892 52.5077 62.7446 52.5077 62.1983C52.5077 61.6464 52.9564 61.1977 53.5083 61.1977C54.0602 61.1977 54.5089 61.6464 54.5089 62.1983C54.5089 62.7446 54.0602 63.1892 53.5083 63.1892Z" fill="black"/>
<path d="M65.2218 41.6582C63.891 41.6582 62.7651 42.5111 62.3347 43.695H44.8932C44.3185 43.695 43.8525 44.161 43.8525 44.7357C43.8525 45.3105 44.3185 45.7764 44.8932 45.7764H62.3328C62.7616 46.9597 63.8888 47.8127 65.2218 47.8127C66.9211 47.8127 68.3039 46.4346 68.3039 44.7403C68.3039 43.041 66.9211 41.6582 65.2218 41.6582ZM65.2218 45.7313C64.6699 45.7313 64.2212 45.2867 64.2212 44.7404C64.2212 44.1885 64.6699 43.7397 65.2218 43.7397C65.7737 43.7397 66.2225 44.1885 66.2225 44.7404C66.2223 45.2867 65.7736 45.7313 65.2218 45.7313Z" fill="black"/>
<path d="M16.4912 38.2247H25.1068C25.6815 38.2247 26.1475 37.7588 26.1475 37.184C26.1475 36.6093 25.6815 36.1433 25.1068 36.1433H17.5319V30.1624C18.7185 29.7348 19.5738 28.6114 19.5738 27.2827C19.5738 25.5835 18.191 24.2007 16.4917 24.2007C14.7924 24.2007 13.4097 25.5835 13.4097 27.2827C13.4097 28.6111 14.2644 29.7342 15.4505 30.1622V37.184C15.4505 37.7587 15.9164 38.2247 16.4912 38.2247ZM16.4917 26.2821C17.0437 26.2821 17.4924 26.7308 17.4924 27.2827C17.4924 27.8291 17.0437 28.2737 16.4917 28.2737C15.9398 28.2737 15.4911 27.8291 15.4911 27.2827C15.4911 26.7308 15.9398 26.2821 16.4917 26.2821Z" fill="black"/>
<path d="M25.1068 53.328C25.6815 53.328 26.1475 52.8621 26.1475 52.2873C26.1475 51.7125 25.6815 51.2466 25.1068 51.2466H16.4912C15.9164 51.2466 15.4505 51.7125 15.4505 52.2873V59.3098C14.2644 59.7391 13.4097 60.866 13.4097 62.1983C13.4097 63.8925 14.7924 65.2708 16.4917 65.2708C18.191 65.2708 19.5738 63.8927 19.5738 62.1983C19.5738 60.8657 18.7185 59.7386 17.5319 59.3096V53.3281H25.1068V53.328ZM16.4917 63.1891C15.9398 63.1891 15.4911 62.7445 15.4911 62.1982C15.4911 61.6462 15.9398 61.1975 16.4917 61.1975C17.0437 61.1975 17.4924 61.6462 17.4924 62.1982C17.4924 62.7445 17.0437 63.1891 16.4917 63.1891Z" fill="black"/>
<path d="M4.7782 47.8127C6.11121 47.8127 7.23846 46.9599 7.66721 45.7764H25.1068C25.6815 45.7764 26.1475 45.3105 26.1475 44.7357C26.1475 44.161 25.6815 43.695 25.1068 43.695H7.66543C7.23504 42.5111 6.10902 41.6582 4.77834 41.6582C3.07906 41.6582 1.69629 43.041 1.69629 44.7403C1.69615 46.4346 3.07893 47.8127 4.7782 47.8127ZM4.7782 43.7397C5.33014 43.7397 5.77885 44.1885 5.77885 44.7404C5.77885 45.2867 5.33014 45.7313 4.7782 45.7313C4.22627 45.7313 3.77756 45.2867 3.77756 44.7404C3.7777 44.1885 4.22641 43.7397 4.7782 43.7397Z" fill="black"/>
</svg>
