<svg width="70" height="70" viewBox="0 0 70 70" fill="none" xmlns="http://www.w3.org/2000/svg">
<path d="M26.1849 27.2048V16.2353C26.1849 11.1772 30.4728 7.09754 35.6036 7.44098C40.2869 7.75325 43.8151 11.8537 43.8151 16.5475V18.7018C43.8151 20.419 45.2201 21.8241 46.9373 21.8241C48.6649 21.8241 50.0596 20.419 50.0596 18.7018V16.2353C50.0596 7.68037 42.8888 0.769789 34.2403 1.19649C26.1537 1.59202 19.9404 8.57534 19.9404 16.6724V31.4093" fill="#FF3148"/>
<path d="M56.7383 47.0759C56.7383 59.083 46.9984 68.8229 34.9914 68.8229C22.9844 68.8229 13.2612 59.083 13.2612 47.0759C13.2612 35.0857 22.9844 25.3457 34.9914 25.3457C46.9984 25.3457 56.7383 35.0857 56.7383 47.0759Z" fill="white"/>
<path d="M38.8712 44.7155C38.8712 46.8672 37.1431 48.5953 35.0082 48.5953C32.8735 48.5953 31.1284 46.8672 31.1284 44.7155C31.1284 42.5808 32.8735 40.8525 35.0082 40.8525C37.1431 40.8527 38.8712 42.5808 38.8712 44.7155Z" fill="#FF3148"/>
<path d="M34.9917 24.3052C32.2656 24.3052 29.6505 24.7879 27.2258 25.6703V16.2353C27.2258 11.8621 30.9276 8.1677 35.5345 8.47955C39.5938 8.75094 42.774 12.295 42.774 16.5473V18.702C42.774 20.9979 44.641 22.865 46.9369 22.865C49.2329 22.865 51.0999 20.9979 51.0999 18.702V16.2353C51.0999 7.05918 43.4282 -0.297379 34.1898 0.156664C25.6158 0.576391 18.8997 7.83014 18.8997 16.6724V30.9798C14.7751 35.1031 12.2202 40.7964 12.2202 47.0757C12.2202 59.6408 22.4356 69.8633 34.9917 69.8633C47.5568 69.8633 57.7794 59.6408 57.7794 47.0755C57.7793 34.5196 47.5568 24.3052 34.9917 24.3052ZM20.9812 16.6724C20.9812 8.94207 26.8272 2.60106 34.2913 2.23616C42.2886 1.82545 49.0182 8.21541 49.0182 16.2355V18.7022C49.0182 19.8496 48.0841 20.7837 46.9367 20.7837C45.7892 20.7837 44.8551 19.8496 44.8551 18.7022V16.5475C44.8551 11.2024 40.8212 6.74678 35.6724 6.40225C29.8813 6.0245 25.144 10.6278 25.144 16.2355V26.5468C23.6588 27.2621 22.2666 28.1383 20.981 29.1451V16.6724H20.9812ZM34.9917 67.7817C23.583 67.7817 14.3018 58.4933 14.3018 47.0755C14.3018 35.668 23.583 26.3866 34.9917 26.3866C46.4093 26.3866 55.6979 35.6679 55.6979 47.0755C55.6977 58.4933 46.4093 67.7817 34.9917 67.7817Z" fill="black"/>
<path d="M35.0081 39.8115C32.2955 39.8115 30.0879 42.0109 30.0879 44.7155C30.0879 47.0702 31.7531 49.0395 33.9663 49.5195V53.3159C33.9663 53.8912 34.4319 54.3566 35.007 54.3566C35.5822 54.3566 36.0477 53.8911 36.0477 53.3159V49.5191C38.2533 49.0387 39.912 47.0696 39.912 44.7155C39.9121 42.0109 37.7127 39.8115 35.0081 39.8115ZM35.0081 47.5542C33.443 47.5542 32.1694 46.2806 32.1694 44.7155C32.1694 43.1595 33.443 41.8931 35.0081 41.8931C36.5641 41.8931 37.8305 43.1595 37.8305 44.7155C37.8305 46.2806 36.5643 47.5542 35.0081 47.5542Z" fill="black"/>
</svg>
