<svg width="25" height="25" viewBox="0 0 25 25" fill="none" xmlns="http://www.w3.org/2000/svg">
<path d="M21.8409 11.5599C22.1449 11.9862 22.2969 12.1994 22.2969 12.5149C22.2969 12.8304 22.1449 13.0436 21.8409 13.4699C20.4748 15.3855 16.9861 19.5149 12.2969 19.5149C7.60766 19.5149 4.11897 15.3855 2.75291 13.4699C2.44888 13.0436 2.29688 12.8304 2.29688 12.5149C2.29688 12.1994 2.44888 11.9862 2.75291 11.5599C4.11897 9.64433 7.60766 5.51489 12.2969 5.51489C16.9861 5.51489 20.4748 9.64433 21.8409 11.5599Z" stroke="black" stroke-opacity="0.28" stroke-width="1.5"/>
<path d="M15.2969 12.5149C15.2969 10.858 13.9538 9.51489 12.2969 9.51489C10.64 9.51489 9.29688 10.858 9.29688 12.5149C9.29688 14.1718 10.64 15.5149 12.2969 15.5149C13.9538 15.5149 15.2969 14.1718 15.2969 12.5149Z" stroke="black" stroke-opacity="0.28" stroke-width="1.5"/>
</svg>
